# xmcd
#
# Track frame offsets: 
#        183
#        19295
#        40735
#        59190
#        81183
#        100553
#        117855
#        137960
#        162508
#        186855
#
# Disc length: 2713 seconds
#
# Revision: 3
# Processed by: cddbd v1.5.2PL0 Copyright (c) Steve Scherf et al.
# Submitted via: ExactAudioCopyFreeDBPlugin 1.0
#
DISCID=890a970a
DTITLE=Carl Anderson - Fantasy Hotel
DYEAR=1992
DGENRE=Pop
TTITLE0=I Will Be There
TTITLE1=If Not For Love
TTITLE2=Once In A Lifetime Love
TTITLE3=Love Will Follow
TTITLE4=Enough Said
TTITLE5=All I Wanna Do
TTITLE6=The Closest Thing To Heaven
TTITLE7=Lover's Mask
TTITLE8=I'm No Stranger
TTITLE9=Wish I Could Stay (Fantasy Hotel)
EXTD=
EXTT0=
EXTT1=
EXTT2=
EXTT3=
EXTT4=
EXTT5=
EXTT6=
EXTT7=
EXTT8=
EXTT9=
PLAYORDER=
